/* XPM */
static char *f84f525876a0490ead80d26f27d3fa2bvO8wnuucBpk7JvGI[] = {
/* columns rows colors chars-per-pixel */
"32 32 100 2 ",
"   c None",
".  c #BF756F",
"X  c #BB7774",
"o  c #CA775C",
"O  c #C77C5E",
"+  c #CC7E5D",
"@  c #D37E57",
"#  c #D27D58",
"$  c #CB7E62",
"%  c #FD8D1A",
"&  c #FD921E",
"*  c #FF9C18",
"=  c #F48C24",
"-  c #FB9523",
";  c #FC9B26",
":  c #F5922D",
">  c #F3992B",
",  c #EE8E34",
"<  c #E98B3B",
"1  c #ED9237",
"2  c #ED9937",
"3  c #EE9338",
"4  c #F09433",
"5  c #F19934",
"6  c #DE864A",
"7  c #DF934A",
"8  c #CB8056",
"9  c #CF8C5F",
"0  c #D78553",
"q  c #E18646",
"w  c #E48A42",
"e  c #CD8D62",
"r  c #C48068",
"t  c #C3896D",
"y  c #3E3EA5",
"u  c #4444A3",
"i  c #4040AD",
"p  c #4D4DAC",
"a  c #5151A6",
"s  c #5454AA",
"d  c #4545B4",
"f  c #4646BA",
"g  c #4D4DBE",
"h  c #5555B4",
"j  c #5858B7",
"k  c #5858B8",
"l  c #6060BE",
"z  c #3E5DFF",
"x  c #4E4EC1",
"c  c #4F4FC9",
"v  c #5050C9",
"b  c #6666C4",
"n  c #7B6DC5",
"m  c #7762C9",
"M  c #6E63D5",
"N  c #6D6CD5",
"B  c #6B64D9",
"V  c #676CDC",
"C  c #6D6DD9",
"Z  c #7264D2",
"A  c #716ED4",
"S  c #6C70DB",
"D  c #7272DF",
"F  c #405DFF",
"G  c #5D63EC",
"H  c #5E6CEE",
"J  c #4767FF",
"K  c #4D65FF",
"L  c #5863F4",
"P  c #576AF5",
"I  c #596CF3",
"U  c #5164FD",
"Y  c #536AFB",
"T  c #6364E5",
"R  c #656DE3",
"E  c #696EE1",
"W  c #6671E3",
"Q  c #6E70E2",
"!  c #6971E9",
"~  c #7575E1",
"^  c #7777EA",
"/  c #7B7BEB",
"(  c #9D6896",
")  c #92689F",
"_  c #9A6B9C",
"`  c #AB6F87",
"'  c #A46D8C",
"]  c #A86F8A",
"[  c #A4778D",
"{  c #A9718A",
"}  c #A06E96",
"|  c #A17095",
" . c #8F69A3",
".. c #8D6BAD",
"X. c #9365A4",
"o. c #8765B6",
"O. c #876AB5",
"+. c #8869B4",
"@. c #8265BF",
"#. c #8269BC",
/* pixels */
"                        g x g x x g g g                         ",
"                  x x v x f f d d f f x v x g                   ",
"                x v d u p p h k j h p p i f v x                 ",
"            g v f u p l N D ~ D ~ ~ ~ N k s u f v g             ",
"          g v d u b ~ ^ D C C C C C C D ^ ~ b u d v x           ",
"        g c y a D ^ D N C C C C C C C C N C / D a y c x         ",
"      g c y s / D N C C C C C C C C C C C C N ! / a u v g       ",
"      c d a / C C C C C C C C C C C C A V P L B C / a i v       ",
"    x f u D D C C C C C C A C C C N R K G O.+ $ G Q D u g g     ",
"  g c u b ^ C A C C C C C C C C C R n [ + , > 0 T V ^ b u c g   ",
"  x f p ~ C C C C C C C C C C C C H ..= 3 t e 0 B R C ^ p f g   ",
"  v i k ^ C C C C C C C C C C C C A J @., 9 2 6 Z W C ^ l u v   ",
"g x p N D C C C C C C C C C C C A S L $ 7 q O = #.H C Q N p x g ",
"x f s ~ N C C C C C C C C C C C A K | 1 4 ` F ..n E C C ~ p f x ",
"x f h D C C C C C C C A C C C C H M q 2 # U W I E A C C ~ h f x ",
"x f j D C C C C C C C C C C C A U X 5 < M I A C C C C C ~ h d x ",
"x d k ~ C C C C C C C C C C A P +., : X.K A C C C C C C ~ j d x ",
"x f h ~ C C C C C C C C C C R G + ; $ U S C C C C C C C ~ h d x ",
"x f s ~ C C C C V ! V C C A K } ; 6 T I A C C C C C C C ~ p f x ",
"x x u N D C C R V X.R W A H Z q : o.U A C C C C C A C D N p x x ",
"  v u l ^ C V R ' % ' U W L X * ` U A C C C C C C C C / l u v   ",
"  x f p ~ C E  . ._ & ' z #.- 0 G W C C C C C C C C C ~ p d x   ",
"  g c y b / N #.R K ( - ( $ : m P A C C C C C C C N / b y c x   ",
"    x f u D D R C S U ( - - _ U C C C C C C C C C D D u f x     ",
"      v i s / C C C S K { o G W N C C C C C C C C / s y c       ",
"      g v y s / ~ A C S R B E A C C C C C C C D / s y v x       ",
"        x c y s D / A A V R C C C C C C C C / D a y c g         ",
"          g c i u b ~ / S C C C C C C D ^ ~ b u i v x           ",
"            g v f u p v N ~ ~ D D D ~ A k h y f v x             ",
"                x c f u p s h j j h p p u f c x                 ",
"                  g x v f f f d d f f g v x g                   ",
"                        x x g x x x g g                         "
};
