/* XPM */
static char *_7264504056344f1c6e6477150a30804smAvP1cte4uJTy27[] = {
/* columns rows colors chars-per-pixel */
"64 64 171 2 ",
"   c None",
".  c #31317D",
"X  c #E77E3D",
"o  c #BF6E6F",
"O  c #BF706A",
"+  c #B66B77",
"@  c #B26B7F",
"#  c #B96D76",
"$  c #B77076",
"%  c #B5727C",
"&  c #B97678",
"*  c #DD7D4A",
"=  c #CB785D",
"-  c #CD775A",
";  c #D07757",
":  c #D97F51",
">  c #D47E56",
",  c #E37240",
"<  c #C87764",
"1  c #C97A61",
"2  c #C2736B",
"3  c #C37D6B",
"4  c #FF9814",
"5  c #FF9A1D",
"6  c #FF941D",
"7  c #FFA70E",
"8  c #FFB200",
"9  c #F88D29",
"0  c #FD8B24",
"q  c #FD9323",
"w  c #FE9823",
"e  c #F5962D",
"r  c #F89229",
"t  c #F6992E",
"y  c #F99A2A",
"u  c #E4843C",
"i  c #E68B3E",
"p  c #EC8E39",
"a  c #EC8737",
"s  c #F18B32",
"d  c #EE9336",
"f  c #E6923C",
"g  c #EA953B",
"h  c #EA9A3C",
"j  c #F09435",
"k  c #F29A33",
"l  c #B5866C",
"z  c #DC8249",
"x  c #DC8D4E",
"c  c #DF8A44",
"v  c #DE9047",
"b  c #DC924C",
"n  c #CF8657",
"m  c #C7835F",
"M  c #CC855D",
"N  c #CF895B",
"B  c #D48554",
"V  c #D38A55",
"C  c #D98F52",
"Z  c #D2895A",
"A  c #DA8652",
"S  c #D99252",
"D  c #E38343",
"F  c #E08148",
"G  c #E49344",
"H  c #E89740",
"J  c #C48466",
"K  c #CA8564",
"L  c #C78967",
"P  c #CB8963",
"I  c #C4836B",
"U  c #C4896C",
"Y  c #C18470",
"T  c #353583",
"R  c #3D3D83",
"E  c #353589",
"W  c #3D3D8C",
"Q  c #3C3C95",
"!  c #3C3C9A",
"~  c #3F3FA7",
"^  c #414194",
"/  c #494992",
"(  c #434399",
")  c #4B4B9B",
"_  c #50509F",
"`  c #4242AE",
"'  c #5454A5",
"]  c #5959AE",
"[  c #4444B3",
"{  c #4D4DBF",
"}  c #5A5AB0",
"|  c #6262BC",
" . c #4C4CC4",
".. c #4E4ECA",
"X. c #5050C6",
"o. c #5151CC",
"O. c #5353D1",
"+. c #7850C6",
"@. c #7C5BC3",
"#. c #755BCC",
"$. c #6E5BD4",
"%. c #675DDF",
"&. c #6B5ADA",
"*. c #6666C4",
"=. c #6A6ACB",
"-. c #7C63C4",
";. c #7366CF",
":. c #7962C9",
">. c #6F60D6",
",. c #6D6CD7",
"<. c #6A62DD",
"1. c #6D6DD9",
"2. c #7263D4",
"3. c #706AD5",
"4. c #6B70DD",
"5. c #7070DF",
"6. c #5D5CEC",
"7. c #575FF3",
"8. c #585FF1",
"9. c #6856E0",
"0. c #635CE3",
"q. c #605FE8",
"w. c #5D63ED",
"e. c #5E6DEE",
"r. c #5E70ED",
"t. c #4C61FF",
"y. c #4D6FFF",
"u. c #5562F6",
"i. c #5A64F1",
"p. c #5768F5",
"a. c #5A6CF2",
"s. c #5777F8",
"d. c #6564E4",
"f. c #6864E1",
"g. c #676FE1",
"h. c #686FE0",
"j. c #616CEA",
"k. c #6571E4",
"l. c #6871E0",
"z. c #6271E9",
"x. c #7373E3",
"c. c #7777EB",
"v. c #7979ED",
"b. c #7B7BF2",
"n. c #9E5D92",
"m. c #965D9E",
"M. c #995F9E",
"N. c #A35A8B",
"B. c #9C6699",
"V. c #9A689A",
"C. c #927494",
"Z. c #A66387",
"A. c #A96585",
"S. c #A96C8B",
"D. c #A66788",
"F. c #B37680",
"G. c #A26391",
"H. c #A26B93",
"J. c #8D5CAB",
"K. c #8F5DA5",
"L. c #925BA4",
"P. c #895BB3",
"I. c #845CB9",
"U. c #8D63AF",
"Y. c #8969AB",
"T. c #9363A2",
"R. c #9062A8",
"E. c #8962B2",
"W. c #8B68B1",
"Q. c #8363BC",
"!. c #9E848A",
/* pixels */
"                                                      { { { { { { { { { {                                                       ",
"                                               .{ { { { { { { { { { { { { { { { {                                               ",
"                                        { { { { { { { {  .{ {  .{ { { { { { { { { { { {                                         ",
"                                    { { { { { { { X.X.o... . . . . . ...X.X.X.{ { { { { { {                                     ",
"                                { { { { {  . .o. .` ! ! ^ ( ( ( ( ( ( Q ! ~ `  .o.X.{ { { { { {                                 ",
"                            { { { { { { o...~ Q ^ ) ' } | *.=.=.=.=.*.| } ' ) ^ Q ~ ..o.{ { { {  .{                             ",
"                          { { {  . .o. .! W ) ] =.x.v.v.x.x.h.5.5.5.x.x.c.v.x.=.] ) W Q  .o.{ { { { {                           ",
"                        { { { { X...! W _ *.v.v.5.1.1.1.1.1.1.1.1.1.1.1.1.1.1.5.v.v.*._ W ! X.X.{ { { {                         ",
"                    { { { { { o.[ T ) =.b.x.,.,.1.1.1.1.1.1.1.1.1.1.1.1.1.1.1.1.1.,.x.b.=.) T ` O.{ { { { {                     ",
"                  { {  .{  .o.! R | b.x.,.1.1.1.1.1.1.1.1.1.1.1.1.1.1.1.1.1.1.1.1.1.1.,.x.b.| ^ ! o. .{ { { {                   ",
"                { { { { X.X.E / x.v.,.1.1.1.1.1.1.,.1.1.1.1.1.1.,.1.1.1.1.1.1.1.1.1.,.1.1.,.v.5./ T  ...{ { { {                 ",
"                { { { X. .. ' b.x.,.,.1.1.1.1.1.1.1.1.1.1.1.1.1.1.1.1.1.1.1.,.1.1.1.1.1.1.1.,.x.b.' T  .X.{ { {                 ",
"              {  .{ X. .. } b.1.1.1.1.1.1.1.1.1.1.1.1.1.1.1.1.1.1.1.1.1.1.1.1.1.1.1.1.1.1.1.1.1.1.b.] .  .X.{ { {               ",
"            {  .{  . .T } b.1.1.1.1.1.1.1.1.1.1.1.1.1.1.1.,.1.1.1.1.1.1.1.1.1.1.1.1.1.1.1.1.1.1.1.1.b.} T  . .{ { {             ",
"          { { { { o.E ' b.1.1.1.1.1.1.,.1.1.1.1.1.1.1.1.1.1.1.1.1.1.1.1.1.1.1.1.1.1.1.1.1.1.g.l.1.1.1.b.' E o.{ { { {           ",
"          { { { o.! / b.1.1.1.1.1.1.1.1.1.1.1.1.1.1.1.1.1.1.1.1.1.1.1.1.1.1.1.1.1.1.,.1.z.p.9.2.4.1.1.1.v./ ! O.{ { {           ",
"        { { { X.[ R x.x.1.1.1.1.1.1.1.1.1.1.1.1.1.1.1.1.1.1.1.1.1.1.1.1.1.1.1.1.,.h.a.i.$.S.u S.j.1.1.1.l.x.R [ o.{ { {         ",
"        { {  .o.T | v.,.1.1.1.1.1.1.1.1.1.1.1.1.1.1.1.1.1.1.1.1.1.1.1.1.1.1.1.z.p.q.E.2 a 9 7 & i.1.1.1.1.v.| T X.{ { {         ",
"      { { { o.! ) b.,.1.1.1.1.1.1.1.1.1.1.1.1.1.1.1.1.1.1.1.1.1.1.1.1.1.4.z.i.$.H.: 9 y G I d 2 w.g.1.1.1.,.v.) ! O.{ { {       ",
"      { { {  .W =.x.1.1.1.1.1.1.1.1.1.1.1.1.1.1.1.,.1.1.1.1.1.1.1.1.1.1.3.W.@ D w k V I L I j < 6.1.1.1.1.1.x.=.W  .{ { {       ",
"    {  .{ o.! ' b.,.1.1.1.1.1.1.1.1.1.1.1.1.1.1.1.1.1.1.1.5.,.,.1.1.1.j.@., 8 e 3 I P P P K h > 0.4.1.1.1.1.1.b.) ! o.{ X.{     ",
"    { { { X.W *.x.1.1.1.1.1.1.1.1.1.1.1.1.,.1.1.1.1.1.1.1.,.,.1.1.1.1.1.h.-.# p G M P P P P H : %.l.1.1.1.1.1.x.*.W ..{ { {     ",
"    { {  .~ ) c.1.1.1.1.1.1.1.1.1.1.1.1.1.1.1.1.1.1.1.1.1.1.1.1.1.1.1.1.1.j.t.L.q G P P P L G c $.g.1.1.1.1.1.1.v.) ~ X.{ {     ",
"  { { { O.Q ] c.1.1.1.1.1.1.1.1.1.1.1.1.1.1.1.1.1.1.1.1.1.1.1.1.1.1.1.1.1.h.7.% e K P Z b I S , :.k.1.1.1.1.1.1.v.] Q o.{ { {   ",
"  { { {  .^ =.1.1.1.1.1.1.1.1.1.1.1.1.1.1.1.1.1.1.,.1.1.1.1.1.1.1.1.1.1.,.p.R.q C U K j 0 e g X Q.z.1.1.1.1.1.1.x.=.^  . .{ {   ",
"  { {  .[ ) x.1.1.1.1.1.1.1.1.1.1.1.1.1.1.1.1.1.1.1.1.1.1.1.1.1.1.1.1.,.k.0., k I I k F +.% 6 4 E.a.1.1.1.,.1.1.,.x.) `  .{ {   ",
"  { { X.! ' v.1.1.1.1.1.1.1.1.1.1.1.1.1.1.1.1.1.1.1.1.1.1.1.1.1.1.1.1.4.u.S.y P U x q P.y.i.Q.2 E.j.1.1.1.1.1.1.,.v.' ! X.{ {   ",
"{ {  .o.! } c.1.1.1.1.1.1.1.1.1.1.1.1.1.1.1.1.1.1.1.1.1.1.1.1.1.1.1.,.r.#.s G U N 5 A.u.4.4.e.w.,.,.1.1.1.1.1.1.1.c.} ! o.{ { { ",
"{ { { X.! | x.1.1.1.1.1.1.1.1.1.1.1.1.1.1.1.1.1.1.1.1.1.1.1.1.1.5.,.l.q.< t K I y : q.k.1.1.1.1.5.,.,.,.1.1.1.1.1.x.| ( o.{ { { ",
"{ { {  .( *.x.1.1.1.1.1.1.1.1.1.1.,.1.1.1.1.1.1.1.1.1.1.1.1.1.1.1.,.p.T.r V Y G 9 @.a.,.1.1.1.1.1.1.1.5.1.1.1.1.1.x.*.(  . .{ { ",
"{ { {  .( =.x.1.1.1.1.1.1.1.1.1.1.1.1.1.1.1.1.1.1.1.1.1.1.1.1.1.,.z.$.F H I Z w G.u.1.1.1.1.1.1.1.1.1.1.1.1.1.1.1.h.=.(  .{ { { ",
"{ { {  .( =.1.1.1.1.1.1.1.1.1.1.1.1.1.1.1.1.1.1.1.1.1.1.1.1.1.,.1.w.@ e K I y = 6.k.1.1.1.1.1.1.1.1.1.1.1.1.1.1.,.5.=.^ {  .{ { ",
"{ { {  .( =.1.1.1.1.1.1.1.1.1.1.1.1.1.1.1.1.1.1.1.1.,.4.1.1.,.4.a.I.p x Y G a #.r.,.5.1.1.1.1.1.1.1.1.1.1.1.1.1.1.5.=.(  .{ { { ",
"{ { {  .( =.x.,.1.1.1.1.1.1.1.1.1.1.1.1.1.1.1.1.1.1.,.3.1.1.,.k.0.1 g I V w L.p.,.,.1.1.1.1.1.1.1.1.1.1.1.1.1.1.,.5.=.(  . .{ { ",
"{ { {  .( *.x.,.1.1.1.1.1.1.1.1.1.1.1.1.1.1.1.1.1.1.3.4.1.1.1.i.H.d M K k 2 q.h.,.,.1.1.1.1.1.1.1.1.1.1.1.1.1.1.1.x.*.(  .{ { { ",
"{ {  ...! | x.1.1.1.1.1.1.1.1.1.1.1.1.1.1.1.1.1.1.1.4.,.4.3.r.#.* G I g , $.z.,.1.,.1.1.1.1.1.1.1.1.1.1.1.1.1.1.1.x.| ^ ..{ { { ",
"{ { { o.! } c.1.1.1.1.1.1.1.1.1.1.1.1.1.1.1.1.1.1.1.1.,.1.l.6.+ d K S s P.a.,.,.1.1.1.1.1.1.1.1.1.1.1.1.1.1.1.1.,.c.} ! o.{ { { ",
"  {  .X.! ' v.1.1.1.1.1.1.1.1.1.1.,.g.l.1.1.1.1.1.1.,.,.1.e.U.i C P t A.i.l.,.5.1.1.1.1.1.1.1.1.1.1.1.1.1.1.1.1.1.v.' ! ..{ {   ",
"  { {  .` ) x.,.1.1.1.1.1.1.,.,.1.g.@.:.k.1.1.1.1.1.5.,.k.&.= G I g ; &.z.,.1.1.1.1.1.1.1.1.1.1.1.1.1.1.1.1.1.1.1.x.) ` X. .{   ",
"  { { { X.^ =.5.1.1.1.1.1.1.5.,.z.;.S.A.2.z.1.1.1.1.1.4.w.H.p P b D I.r.,.1.1.1.1.1.1.1.1.1.1.1.1.1.1.1.1.1.1.1.x.*.^  .{ { {   ",
"  { { { O.Q ] v.1.1.1.1.1.1.,.z.$.Z.f V n.>.r.=.1.1.1.z.@.z x N d G.w.1.,.1.1.1.1.1.1.1.1.1.1.1.1.1.1.1.1.1.1.1.v.] Q o.{ { {   ",
"    { { X.~ ) c.,.1.1.1.1.,.k.2.B.l B p n n.<.k.,.1.k.%.$ G M g 2 %.z.1.1.1.1.1.1.1.1.1.1.1.1.1.1.1.1.1.1.1.1.1.c.) ~ X.{ {     ",
"    { {  .X.W *.x.,.1.1.1.g.2.R.!.G.J.J d V B.<.k.1.e.K.c V b * @.r.,.1.1.1.1.1.1.1.1.1.1.1.1.1.1.1.1.1.1.1.1.x.*.W ..{ { {     ",
"    { { { o.! ) b.,.1.1.1.h.T.C.V.2.d.K.m d B n.%.s.#.= b V G M.i.1.1.1.1.1.1.1.1.1.1.1.1.,.1.1.1.1.1.1.1.1.,.b._ Q o. .{ {     ",
"      { { {  .W =.x.1.1.h.3.Y.T.,.k.k.f.L.m d V V.9.B.v B G # 0.k.,.1.1.1.1.1.1.1.1.1.1.1.1.1.1.1.1.1.1.1.1.x.=.W  .{ { {       ",
"      { { { o.! ) b.,.,.,.1.,.g.l.,.,.k.<.m.M d m N.K x b ; #.r.,.,.1.1.1.1.1.1.1.1.1.1.1.1.1.1.1.1.1.1.1.,.b.) ! o.{ { {       ",
"        { { { o.E | v.,.,.1.1.1.1.1.1.,.k.f.m.n p V Z x c J.e.1.5.,.5.1.1.1.1.1.1.1.1.1.1.1.1.1.1.1.1.1.,.v.| T o.{  .{         ",
"        { {  .X.[ R x.x.,.1.1.1.1.1.1.1.,.k.f.m.V i A b Z.d.l.1.,.,.1.1.1.1.1.1.1.1.1.1.1.1.1.1.1.1.1.,.x.x.R [ X.{ { {         ",
"          { { { o.! / b.,.,.,.1.1.1.1.1.1.,.k.d.L.n h O #.z.,.1.1.1.1.1.1.1.1.1.1.1.1.1.1.1.1.1.1.1.1.1.v./ ! O.{ { {           ",
"          { {  .{ o.T ' b.1.1.1.1.1.1.1.1.1.,.k.d.B.- J.e.4.1.1.1.1.1.1.1.1.1.1.1.1.1.1.1.1.1.,.1.1.1.b.' E o.{ { { {           ",
"            { { { X. .T } b.1.1.1.1.1.1.1.1.1.,.l.<.P.,.4.1.1.1.1.1.1.1.1.1.1.1.1.1.1.1.1.1.4.,.1.1.b.} . .. .{ { {             ",
"              { { { X. .T } b.1.,.1.1.1.1.1.1.1.,.4.r.4.,.1.1.1.1.1.1.1.1.1.1.1.,.1.1.1.1.1.3.4.1.b.] .  .X.{ { {               ",
"                { { { X. .T ' v.x.,.,.1.1.1.1.1.,.4.1.1.1.1.1.1.1.1.1.1.1.1.1.1.,.5.1.1.,.,.,.x.b.' T  .X.{ { {                 ",
"                { { { {  ...E / x.b.,.1.1.,.1.1.,.,.1.1.1.1.1.1.1.1.1.1.1.1.1.1.,.,.1.1.5.,.v.5./ E  .X.{ { { {                 ",
"                  { { { {  .o.! R | b.x.,.1.1.1.1.1.1.1.1.1.1.1.1.1.1.1.1.1.1.1.1.1.1.,.x.b.| R Q o. .{ { { {                   ",
"                    { { { { { O.[ T ) =.b.x.,.1.1.1.1.1.1.1.1.1.1.1.1.1.1.1.1.1.1.1.x.b.=.) E [ O.{  .{ { {                     ",
"                        { { { { X.o.! W _ *.c.v.x.1.1.1.,.,.1.1.1.1.1.1.1.1.1.5.c.x.*._ W ! X.X.{ { { {                         ",
"                          { { { { { o...! W ) ] =.x.v.v.x.x.x.1.1.5.x.c.c.v.x.=.] ) W !  .o.{ { { { {                           ",
"                            { { { { { { o...~ Q ^ ) ' } } =.=.=.=.=.*.} } ' ) ^ Q ` ..X. .{ { { { {                             ",
"                                { { { { { { X.o. .` ! ! ! ( ( ^ ( ( ( ( ! ! [  .o.X. .{ { { { {                                 ",
"                                    { { { { { {  . .X.o... . . .{  ...X.o... .{ { { { { { {                                     ",
"                                         .{ { { { { { { { {  .{ { {  .{  .{ { { { {  .{                                         ",
"                                              { { { {  .{ { { { { { { { { { { { {                                               ",
"                                                      { { { { { { { { { {                                                       "
};
