/* XPM */
static char *_818338c68b443fb9d8c183dd41004e4BtEIjcuOybZmLwR6[] = {
/* columns rows colors chars-per-pixel */
"16 16 130 2 ",
"   c None",
".  c #BE746A",
"X  c #BB7D75",
"o  c #C67F5E",
"O  c #FF940F",
"+  c #FF9C0D",
"@  c #FA891B",
"#  c #F9932A",
"$  c #EC8A36",
"%  c #E68B3F",
"&  c #E98A3B",
"*  c #F08930",
"=  c #4745AD",
"-  c #4545AE",
";  c #4545AF",
":  c #4646AE",
">  c #4646AF",
",  c #4242B1",
"<  c #4342B1",
"1  c #4343B1",
"2  c #4344B1",
"3  c #4646B3",
"4  c #4545B5",
"5  c #4646B4",
"6  c #4545B6",
"7  c #4848BD",
"8  c #4848BE",
"9  c #4848BF",
"0  c #5050B7",
"q  c #5151B7",
"w  c #5251B6",
"e  c #4A4AC0",
"r  c #4A4AC1",
"t  c #5F5FC3",
"y  c #5F5FC4",
"u  c #5F5FC5",
"i  c #605FC3",
"p  c #5F64CD",
"a  c #6665C4",
"s  c #6464C6",
"d  c #6264CA",
"f  c #6464CA",
"g  c #6464CB",
"h  c #6064CD",
"j  c #6F6ECC",
"k  c #6D6DCF",
"l  c #7F6DC0",
"z  c #7D6FC2",
"x  c #7B6DC7",
"c  c #786DC9",
"v  c #786CCA",
"b  c #6B6ED2",
"n  c #6B6BD6",
"m  c #6B6BD7",
"M  c #6F6DD5",
"N  c #6D6CD7",
"B  c #6E6DD7",
"V  c #6F6DD7",
"C  c #6267DE",
"Z  c #6A68DB",
"A  c #6C6CD8",
"S  c #6D6CD8",
"D  c #6D6DD8",
"F  c #6C6CD9",
"G  c #6D6DD9",
"H  c #6E6DD8",
"J  c #6D6DDA",
"K  c #6D6EDA",
"L  c #6A6BDE",
"P  c #6A6DDD",
"I  c #6A6EDC",
"U  c #726FD3",
"Y  c #7068D5",
"T  c #716DD5",
"R  c #706ED4",
"E  c #716ED4",
"W  c #726FD5",
"Q  c #7573DE",
"!  c #7776DD",
"~  c #7575DE",
"^  c #7576DF",
"/  c #7676DE",
"(  c #7676DF",
")  c #5B67EA",
"_  c #5F6BE9",
"`  c #4162FF",
"'  c #4665FF",
"]  c #4863FF",
"[  c #4F63FE",
"{  c #4D64FF",
"}  c #4C65FF",
"|  c #5769F5",
" . c #5668F6",
".. c #586AF4",
"X. c #5263FC",
"o. c #5264FC",
"O. c #6569E2",
"+. c #666DE1",
"@. c #636DE7",
"#. c #686BE1",
"$. c #686DE0",
"%. c #606AEB",
"&. c #6A74EE",
"*. c #6D75EF",
"=. c #7373E0",
"-. c #7373E1",
";. c #7776E1",
":. c #7575E3",
">. c #7676E2",
",. c #7676E3",
"<. c #7173E4",
"1. c #7076E6",
"2. c #7775EA",
"3. c #7273EF",
"4. c #7878E8",
"5. c #7979E8",
"6. c #7878E9",
"7. c #6273FD",
"8. c #7279F3",
"9. c #9E7192",
"0. c #9E759B",
"q. c #AD7682",
"w. c #AA7A89",
"e. c #AA7C8C",
"r. c #B17D80",
"t. c #A17293",
"y. c #926FA3",
"u. c #9571A0",
"i. c #816EBE",
"p. c #8078DD",
/* pixels */
"          9 4 4 3 4 7           ",
"      r , q i g d s 0 ; r       ",
"    9 > f Q :.-.-.>.Q h > 9     ",
"  r > k 6.D J D M _ o.3.j > r   ",
"  , s 5.n D D J +.z r.o 2.p ,   ",
"9 q >.D D D D V  .y.+ # Y &.q 9 ",
"4 u >.D D J D T [ e.% 9.c *.i 4 ",
"3 g -.D D D V ..c O i.` M Q g 3 ",
"3 g -.Y @.F n [ & X ] T D -.g 4 ",
"4 i >.+.z L ' w.$ X.+.M D :.s 4 ",
"9 q 1.J . q._ * v ..T F D Q 0 7 ",
"  , g ! ) t.@ 0.{ U D M 5.s ,   ",
"  r = b 8.%.0.O.I D D :.b > 9   ",
"    9 > s Q 7.<.Q :.Q s > 9     ",
"      r 2 q i d g s q 3 r       ",
"          7 4 3 4 4 9           "
};
